# xmcd
#
# Track frame offsets: 
#        182
#        22910
#        43055
#        66212
#        82470
#        104367
#        120680
#        144575
#        167832
#        185762
#
# Disc length: 2874 seconds
#
# Revision: 6
# Processed by: cddbd v1.5.2PL0 Copyright (c) Steve Scherf et al.
# Submitted via: ExactAudioCopyFreeDBPlugin 1.0
#
DISCID=910b380a
DTITLE=Robert Cray - Shame and A Sin
DYEAR=1993
DGENRE=Blues
TTITLE0=1040 Blues
TTITLE1=Some Pain, Some Shame
TTITLE2=I Shiver
TTITLE3=You're Gonna Need Me
TTITLE4=Don't Break This Ring
TTITLE5=Stay Go
TTITLE6=Leave Well Enough Alone
TTITLE7=Passing By
TTITLE8=I'm Just Lucky That Way
TTITLE9=Up And Down
EXTD=YEAR: 1993 ID3G:   0
EXTT0=
EXTT1=
EXTT2=
EXTT3=
EXTT4=
EXTT5=
EXTT6=
EXTT7=
EXTT8=
EXTT9=
PLAYORDER=
